<svg width="32" height="32" viewBox="0 0 32 32" fill="none" xmlns="http://www.w3.org/2000/svg">
<g clip-path="url(#clip0_2_485)">
<path fill-rule="evenodd" clip-rule="evenodd" d="M28 5V10C28 10.5523 27.5523 11 27 11C26.4477 11 26 10.5523 26 10V6H22C21.4477 6 21 5.55228 21 5C21 4.44772 21.4477 4 22 4H27C27.5523 4 28 4.44772 28 5ZM10 26H6V22C6 21.4477 5.55228 21 5 21C4.44772 21 4 21.4477 4 22V27C4 27.5523 4.44772 28 5 28H10C10.5523 28 11 27.5523 11 27C11 26.4477 10.5523 26 10 26ZM27 21C26.4477 21 …6.4477 21 27C21 27.5523 21.4477 28 22 28H27C27.5523 28 28 27.5523 28 27V22C28 21.4477 27.5523 21 27 21ZM5 11C5.55228 11 6 10.5523 6 10V6H10C10.5523 6 11 5.55228 11 5C11 4.44772 10.5523 4 10 4H5C4.44772 4 4 4.44772 4 5V10C4 10.5523 4.44772 11 5 11ZM23 21V11C23 9.89543 22.1046 9 21 9H11C9.89543 9 9 9.89543 9 11V21C9 22.1046 9.89543 23 11 23H21C22.1046 23 23 22.1046 23 21Z" fill="white"/>
</g>
<defs>
<clipPath id="clip0_2_485">
<rect width="32" height="32" fill="white"/>
</clipPath>
</defs>
</svg>
