<svg width="48" height="48" viewBox="0 0 48 48" fill="none" xmlns="http://www.w3.org/2000/svg">
<g clip-path="url(#clip0_2_263)">
<path fill-rule="evenodd" clip-rule="evenodd" d="M37.125 24C37.125 24.6213 36.6213 25.125 36 25.125C35.3787 25.125 34.875 24.6213 34.875 24C34.875 23.3787 35.3787 22.875 36 22.875C36.6213 22.875 37.125 23.3787 37.125 24ZM36 18.75C36.6213 18.75 37.125 18.2463 37.125 17.625C37.125 17.0037 36.6213 16.5 36 16.5C35.3787 16.5 34.875 17.0037 34.875 17.625C34.875 18.2463 35.3787 18.75 36 18.75ZM36 29.25C35.3787 29.25 34.875 29.7537 34.875 30.375C34.875 30.9963 35.3787 31.5 36 31.5C36.6213 31.5 37.125 30.9963 37.125 30.375C37.125 29.7537 36.6213 29.25 36 29.25Z" fill="#0F1A1A"/>
</g>
<defs>
<clipPath id="clip0_2_263">
<rect width="24" height="24" fill="white" transform="translate(24 12)"/>
</clipPath>
</defs>
</svg>
