<svg width="20" height="20" viewBox="0 0 20 20" fill="none" xmlns="http://www.w3.org/2000/svg">
<g clip-path="url(#clip0_2_492)">
<path fill-rule="evenodd" clip-rule="evenodd" d="M16.25 4.375H14.0844L13.0195 2.77813C12.9037 2.60447 12.7088 2.50013 12.5 2.5H7.5C7.29124 2.50013 7.09633 2.60447 6.98047 2.77813L5.91484 4.375H3.75C2.71447 4.375 1.875 5.21447 1.875 6.25V15C1.875 16.0355 2.71447 16.875 3.75 16.875H16.25C17.2855 16.875 18.125 16.0355 18.125 15V6.25C18.125 5.21447 17.2855 4.375 16.25 4.3…508 13C10.8187 14.0662 8.83472 13.9804 7.5 12.7945V13.125C7.5 13.4702 7.22018 13.75 6.875 13.75C6.52982 13.75 6.25 13.4702 6.25 13.125V11.25C6.25 10.9048 6.52982 10.625 6.875 10.625H8.75C9.09518 10.625 9.375 10.9048 9.375 11.25C9.375 11.5952 9.09518 11.875 8.75 11.875H8.34766C9.23726 12.6544 10.5503 12.7068 11.4992 12.0008C11.7752 11.7935 12.1669 11.8491 12.3742 12.125Z" fill="white"/>
</g>
<defs>
<clipPath id="clip0_2_492">
<rect width="20" height="20" fill="white"/>
</clipPath>
</defs>
</svg>
