<svg width="24" height="24" viewBox="0 0 24 24" fill="none" xmlns="http://www.w3.org/2000/svg">
<g clip-path="url(#clip0_1_27)">
<path fill-rule="evenodd" clip-rule="evenodd" d="M23.1853 11.6962C23.1525 11.6222 22.3584 9.86062 20.5931 8.09531C18.2409 5.74312 15.27 4.5 12 4.5C8.73 4.5 5.75906 5.74312 3.40687 8.09531C1.64156 9.86062 0.84375 11.625 0.814687 11.6962C0.728449 11.8902 0.728449 12.1117 0.814687 12.3056C0.8475 12.3797 1.64156 14.1403 3.40687 15.9056C5.75906 18.2569 8.73 19.5 12 19.5C15.…8856 6 17.4066 7.04906 19.4934 9.11719C20.3514 9.9684 21.0815 10.9394 21.6609 12C20.985 13.2619 18.0403 18 12 18ZM12 7.5C9.51472 7.5 7.5 9.51472 7.5 12C7.5 14.4853 9.51472 16.5 12 16.5C14.4853 16.5 16.5 14.4853 16.5 12C16.4974 9.51579 14.4842 7.50258 12 7.5ZM12 15C10.3431 15 9 13.6569 9 12C9 10.3431 10.3431 9 12 9C13.6569 9 15 10.3431 15 12C15 13.6569 13.6569 15 12 15Z" fill="#57878A"/>
</g>
<defs>
<clipPath id="clip0_1_27">
<rect width="24" height="24" fill="white"/>
</clipPath>
</defs>
</svg>
