<svg width="48" height="48" viewBox="0 0 48 48" fill="none" xmlns="http://www.w3.org/2000/svg">
<g clip-path="url(#clip0_2_466)">
<path fill-rule="evenodd" clip-rule="evenodd" d="M44.7806 24.5306L38.0306 31.2806C37.7376 31.5737 37.2624 31.5737 36.9694 31.2806C36.6763 30.9876 36.6763 30.5124 36.9694 30.2194L42.4397 24.75H27.75C27.3358 24.75 27 24.4142 27 24C27 23.5858 27.3358 23.25 27.75 23.25H42.4397L36.9694 17.7806C36.6763 17.4876 36.6763 17.0124 36.9694 16.7194C37.2624 16.4263 37.7376 16.4263 38.0306 16.7194L44.7806 23.4694C44.9215 23.6101 45.0006 23.8009 45.0006 24C45.0006 24.1991 44.9215 24.3899 44.7806 24.5306Z" fill="#0F1A1A"/>
</g>
<defs>
<clipPath id="clip0_2_466">
<rect width="24" height="24" fill="white" transform="translate(24 12)"/>
</clipPath>
</defs>
</svg>
