<svg width="24" height="24" viewBox="0 0 24 24" fill="none" xmlns="http://www.w3.org/2000/svg">
<path fill-rule="evenodd" clip-rule="evenodd" d="M3.49993 8.00007C3.50013 7.05199 3.7454 6.12005 4.21195 5.29471C4.67849 4.46936 5.35047 3.77862 6.16267 3.28954C6.97486 2.80045 7.89969 2.52963 8.84741 2.50334C9.79514 2.47705 10.7336 2.69619 11.5716 3.13949C12.4097 3.5828 13.1189 4.23522 13.6305 5.03343C14.1421 5.83165 14.4386 6.74855 14.4914 7.69517C14.5442 8.64178 14.3513 9.58597 13.9316 10.4361C13.5119 11.2862 12.8795 12.0134 12.0959 12.5471C13.7834 13.166 15.2471 14.2758 16.2986 15.7336C17.35 17.1914 17.9412 18.9305 17.9959 20.7271C17.9989 20.8256 17.9824 20.9237 17.9474 21.0158C17.9125 21.1079 17.8597 21.1923 17.7922 21.264C17.6557 21.4089 17.4673 21.4936 17.2684 21.4996C17.0695 21.5055 16.8764 21.4322 16.7315 21.2958C16.5866 21.1594 16.5019 20.971 16.4959 20.7721C16.4364 18.8235 15.6205 16.9747 14.2211 15.6175C12.8217 14.2602 10.9489 13.5012 8.99943 13.5012C7.04997 13.5012 5.17712 14.2602 3.77776 15.6175C2.37839 16.9747 1.56248 18.8235 1.50293 20.7721C1.49292 20.9679 1.40661 21.152 1.26249 21.285C1.11837 21.418 0.927906 21.4892 0.731901 21.4835C0.535896 21.4777 0.34994 21.3954 0.213869 21.2542C0.0777983 21.113 0.00243635 20.9242 0.00392798 20.7281C0.0584793 18.9313 0.649535 17.192 1.70101 15.734C2.75249 14.276 4.21627 13.1661 5.90393 12.5471C5.16263 12.0428 4.556 11.3648 4.13697 10.5723C3.71793 9.77969 3.49922 8.89661 3.49993 8.00007V8.00007ZM8.99993 4.00007C7.93906 4.00007 6.92165 4.4215 6.1715 5.17165C5.42136 5.92179 4.99993 6.93921 4.99993 8.00007C4.99993 9.06094 5.42136 10.0784 6.1715 10.8285C6.92165 11.5786 7.93906 12.0001 8.99993 12.0001C10.0608 12.0001 11.0782 11.5786 11.8284 10.8285C12.5785 10.0784 12.9999 9.06094 12.9999 8.00007C12.9999 6.93921 12.5785 5.92179 11.8284 5.17165C11.0782 4.4215 10.0608 4.00007 8.99993 4.00007Z" fill="black"/>
<path d="M17.2901 7.99989C17.1421 7.99989 16.9981 8.00989 16.8561 8.02989C16.7569 8.04764 16.6552 8.04524 16.557 8.02284C16.4588 8.00043 16.3662 7.95848 16.2845 7.89948C16.2029 7.84048 16.134 7.76564 16.0819 7.67943C16.0298 7.59322 15.9957 7.49741 15.9814 7.3977C15.9672 7.29799 15.9732 7.19644 15.999 7.0991C16.0249 7.00175 16.0701 6.91061 16.1319 6.83112C16.1938 6.75162 16.271 6.6854 16.359 6.63639C16.447 6.58739 16.5439 6.55661 16.6441 6.54589C17.6386 6.40209 18.6528 6.59309 19.5269 7.08882C20.4011 7.58454 21.0856 8.35686 21.4727 9.28422C21.8598 10.2116 21.9276 11.2413 21.6653 12.2114C21.4031 13.1815 20.8257 14.0369 20.0241 14.6429C21.2025 15.1705 22.203 16.0279 22.9049 17.1115C23.6069 18.1952 23.9803 19.4588 23.9801 20.7499C23.9801 20.9488 23.9011 21.1396 23.7604 21.2802C23.6197 21.4209 23.429 21.4999 23.2301 21.4999C23.0312 21.4999 22.8404 21.4209 22.6997 21.2802C22.5591 21.1396 22.4801 20.9488 22.4801 20.7499C22.48 19.634 22.1204 18.5479 21.4547 17.6524C20.789 16.7568 19.8526 16.0996 18.7841 15.7779L18.2501 15.6179V13.9419L18.6601 13.7329C19.2678 13.425 19.7541 12.9213 20.0404 12.3031C20.3267 11.6849 20.3962 10.9883 20.2379 10.3256C20.0796 9.66303 19.7025 9.0731 19.1677 8.65112C18.6328 8.22913 17.9713 7.99971 17.2901 7.99989Z" fill="black"/>
</svg>
